# xmcd
#
# Track frame offsets:
#       150
#       22062
#       37635
#       55287
#       71381
#       87140
#       105114
#       125312
#       147159
#       166343
#       181964
#       202688
#       221649
#       228264
#       239482
#       254913
#       270404
#       284802
#       297637
#       317586
#
# Disc length: 4438 seconds
#
#
# Revision: 0
# Processed by: cddbd v1.5.2PL0 Copyright (c) Steve Scherf et al.
# Submitted via: Visual Ripper tool of Visual MP3 v4.18
#
DISCID=21115414
DTITLE=Clemens Bittlinger - Gott spannt leise feine Fäden
DYEAR=2002
DGENRE=Blues
TTITLE0=Komm herein
TTITLE1=Aufstehn, aufeinander zugehn
TTITLE2=Gott spannt leise seine Fäden
TTITLE3=Der Fluss
TTITLE4=Lethargietango
TTITLE5=Manchmal
TTITLE6=Ein alter Mann zu sein
TTITLE7=Jenseits der Zeit
TTITLE8=Marionetten
TTITLE9=Du bist mein du
TTITLE10=Ihr seid das Salz
TTITLE11=Liebe deinen Feind
TTITLE12=Ich bin das Licht
TTITLE13=This little Light
TTITLE14=Mensch sing mit
TTITLE15=Sanna sannanina
TTITLE16=Schritte wagen
TTITLE17=Am Abend der Welt
TTITLE18=Jeder Mensch braucht einen Menschen
TTITLE19=Sei behütet
EXTD=
EXTT0=
EXTT1=
EXTT2=
EXTT3=
EXTT4=
EXTT5=
EXTT6=
EXTT7=
EXTT8=
EXTT9=
EXTT10=
EXTT11=
EXTT12=
EXTT13=
EXTT14=
EXTT15=
EXTT16=
EXTT17=
EXTT18=
EXTT19=
PLAYORDER=
